<?xml version="1.0" encoding="utf-8"?>
<!-- Svg Vector Icons : http://www.onlinewebfonts.com/icon -->
<!DOCTYPE svg PUBLIC "-//W3C//DTD SVG 1.1//EN" "http://www.w3.org/Graphics/SVG/1.1/DTD/svg11.dtd">
<svg version="1.1" xmlns="http://www.w3.org/2000/svg" xmlns:xlink="http://www.w3.org/1999/xlink" x="0px" y="0px" viewBox="0 0 1000 1000" enable-background="new 0 0 1000 1000" xml:space="preserve">
<metadata> Svg Vector Icons : http://www.onlinewebfonts.com/icon </metadata>
<g><g><g><path d="M648.7,584.5L520.3,473l-87.9,77.7l-87.9-74.3L141.8,648.7l-27-27l199.4-172.3L114.8,277l27-27L432.4,500L723,249.9l27,27L550.7,449.3L669,550.7l101.4-169l84.5,141.9V246.6c0-37.2-30.4-67.6-67.6-67.6H77.6C40.4,179,10,209.4,10,246.6v405.5c0,37.2,30.4,67.6,67.6,67.6H571L648.7,584.5z"/><path d="M770.3,449.3L550.7,821H990L770.3,449.3z M787.2,753.4h-33.8v-33.8h33.8V753.4z M753.4,685.9V584.5h33.8v101.4H753.4z"/></g></g><g></g><g></g><g></g><g></g><g></g><g></g><g></g><g></g><g></g><g></g><g></g><g></g><g></g><g></g><g></g></g>
</svg>